M48
;DRILL file {KiCad 4.0.0-rc1-stable} date Sun Oct  2 07:22:28 2016
;FORMAT={-:-/ absolute / metric / decimal}
FMAT,2
METRIC,TZ
T1C0.600
T2C0.813
T3C1.001
T4C1.016
T5C3.000
%
G90
G05
M71
T1
X57.3Y-48.4
X58.57Y-48.4
X59.84Y-48.4
T2
X54.665Y-55.2
X54.715Y-52.35
X62.285Y-55.2
X62.335Y-52.35
T4
X49.205Y-48.3
X49.205Y-54.15
X49.205Y-59.975
X49.23Y-42.8
X51.745Y-48.3
X51.745Y-54.15
X51.745Y-59.975
X51.77Y-42.8
X54.645Y-43.475
X56.23Y-59.825
X58.77Y-59.825
X64.805Y-43.475
X68.175Y-59.675
X70.175Y-59.675
X72.175Y-59.675
T5
X83.775Y-44.925
X83.775Y-57.925
T3
X67.626Y-48.201G85X67.626Y-50.2
G05
X73.324Y-46.201G85X71.326Y-46.201
G05
X73.324Y-52.2G85X71.326Y-52.2
G05
T4
X65.095Y-59.967G85X65.095Y-59.383
G05
X75.175Y-59.967G85X75.175Y-59.383
G05
T0
M30
